<svg width="171" height="210" viewBox="0 0 171 210" fill="none" xmlns="http://www.w3.org/2000/svg">
<path d="M40.1715 120.509C51.1385 93.9262 77.3911 64.86 85.3956 56.3609V47.2607L83.0448 49.6382C81.3535 51.3454 50.5481 82.7093 36.14 113.754C34.9593 116.302 33.8903 118.844 32.9542 121.37C30.38 128.316 28.8057 135.124 28.8057 141.443C28.8057 184.981 78.1943 193.097 78.6942 193.171L82.4598 193.751L75.8434 186.236C64.9562 183.555 35.289 173.328 35.289 141.437C35.289 136.948 36.1826 132.146 37.7409 127.173C38.076 126.082 39.9003 121.386 40.1715 120.509Z" fill="#E2C675"/>
<path d="M6.79186 126.461C6.79186 113.233 9.18524 98.5113 19.5884 81.9226C20.3756 75.5935 21.902 69.392 24.4709 63.5415C4.66974 86.0498 0 110.303 0 126.461C0 184.082 50.0109 210 85.5232 210V203.506C52.8297 203.506 6.79186 179.604 6.79186 126.461Z" fill="#E2C675"/>
<path d="M85.3951 8.15342V0L83.3155 1.66472C82.7305 2.13276 68.7638 13.3603 54.5738 29.6087C35.2726 51.7128 25.4863 71.5246 25.4863 88.4963C25.4863 92.0385 25.6193 95.586 25.9756 99.1122C26.2841 102.16 26.7575 105.191 27.4861 108.175C28.1297 110.818 28.9753 113.414 30.071 115.919C30.8156 117.616 31.6187 119.259 32.6399 120.812C33.5919 122.264 34.6503 123.652 35.7991 124.961C38.2457 127.753 41.1177 130.003 44.128 132.21C45.6704 133.343 47.266 134.513 48.7286 135.741C65.3706 149.74 74.6834 167.105 75.8376 186.173L82.4539 193.688L82.4433 190.039C82.3901 167.621 72.2103 147.24 53.0101 131.088C51.3826 129.721 49.7019 128.482 48.0691 127.29C46.6172 126.221 45.1545 125.157 43.7717 124.009C43.0962 123.445 42.442 122.865 41.8145 122.254C41.506 121.95 41.2028 121.642 40.9156 121.323C39.8944 120.206 38.9903 118.993 38.1818 117.727C37.3575 116.435 36.7458 115.084 36.1235 113.691C33.2675 107.276 31.9591 99.2186 31.9591 88.4963C31.9697 55.4465 75.3004 16.7217 85.3951 8.15342Z" fill="#E2C675"/>
<path d="M130.391 120.509C119.424 93.9262 93.1715 64.86 85.167 56.3609V47.2607L87.5178 49.6382C89.2091 51.3454 120.015 82.7093 134.423 113.754C135.603 116.302 136.672 118.844 137.608 121.37C140.183 128.316 141.757 135.124 141.757 141.443C141.757 184.981 92.3684 193.097 91.8684 193.171L88.1029 193.751L94.7192 186.236C105.606 183.555 135.274 173.328 135.274 141.437C135.274 136.948 134.38 132.146 132.822 127.173C132.487 126.082 130.662 121.386 130.391 120.509Z" fill="#E2C675"/>
<path d="M164.01 126.461C164.01 113.233 161.616 98.5113 151.213 81.9226C150.426 75.5935 148.9 69.392 146.331 63.5415C166.132 86.0445 170.802 110.297 170.802 126.455C170.802 184.077 120.791 209.995 85.2783 209.995V203.501C117.972 203.506 164.01 179.604 164.01 126.461Z" fill="#E2C675"/>
<path d="M85.167 8.15342V0L87.2466 1.66472C87.8316 2.13276 101.798 13.3603 115.988 29.6087C135.29 51.7128 145.076 71.5246 145.076 88.4963C145.076 92.0385 144.943 95.586 144.586 99.1122C144.278 102.16 143.805 105.191 143.076 108.175C142.432 110.818 141.587 113.414 140.491 115.919C139.747 117.616 138.943 119.259 137.922 120.812C136.97 122.264 135.912 123.652 134.763 124.961C132.316 127.753 129.444 130.003 126.434 132.21C124.892 133.343 123.296 134.513 121.833 135.741C105.192 149.74 95.8787 167.105 94.7245 186.173L88.1082 193.688L88.1188 190.039C88.172 167.621 98.3518 147.24 117.552 131.088C119.179 129.721 120.86 128.482 122.493 127.29C123.945 126.221 125.408 125.157 126.79 124.009C127.466 123.445 128.12 122.865 128.748 122.254C129.056 121.95 129.359 121.642 129.646 121.323C130.668 120.206 131.572 118.993 132.38 117.727C133.205 116.435 133.816 115.084 134.439 113.691C137.295 107.276 138.603 99.2186 138.603 88.4963C138.592 55.4465 95.2617 16.7217 85.167 8.15342Z" fill="#E2C675"/>
</svg>
