<svg width="26" height="23" viewBox="0 0 26 23" fill="none" xmlns="http://www.w3.org/2000/svg">
<path d="M18.3569 14.5H17.2249L16.8237 14.1625C18.2279 12.7375 19.0734 10.8875 19.0734 8.875C19.0734 4.3875 14.9035 0.75 9.75934 0.75C4.61513 0.75 0.445312 4.3875 0.445312 8.875C0.445312 13.3625 4.61513 17 9.75934 17C12.0663 17 14.1871 16.2625 15.8206 15.0375L16.2075 15.3875V16.375L23.3721 22.6125L25.5072 20.75L18.3569 14.5ZM9.75934 14.5C6.19135 14.5 3.31117 11.9875 3.31117 8.875C3.31117 5.7625 6.19135 3.25 9.75934 3.25C13.3273 3.25 16.2075 5.7625 16.2075 8.875C16.2075 11.9875 13.3273 14.5 9.75934 14.5Z" fill="black" fill-opacity="0.3"/>
</svg>
